<svg id="ic_badge_refund" xmlns="http://www.w3.org/2000/svg" width="48" height="48" viewBox="0 0 48 48">
  <rect id="Rectangle_2094" data-name="Rectangle 2094" width="48" height="48" fill="#1f212b" opacity="0"/>
  <g id="Group_6555" data-name="Group 6555" transform="translate(1.839 1.129)">
    <path id="Path_3009" data-name="Path 3009" d="M105.242,126.923l-4.968-1.428a.5.5,0,0,0-.619.341.5.5,0,0,0,.342.619l3.9,1.122A21.058,21.058,0,0,1,76.978,95.411a.5.5,0,0,0-.709-.706,22.052,22.052,0,0,0,27.988,33.832l-1.059,3.682a.5.5,0,0,0,.342.619.482.482,0,0,0,.139.02.5.5,0,0,0,.48-.362l1.425-4.954a.5.5,0,0,0-.342-.619Z" transform="translate(-69.839 -87.33)" fill="#1f212b"/>
    <path id="Path_3010" data-name="Path 3010" d="M113.191,104.538A22.054,22.054,0,0,0,80.07,91.668l1.064-3.7a.5.5,0,1,0-.961-.277l-1.425,4.954a.5.5,0,0,0,.343.619l4.968,1.428a.492.492,0,0,0,.137.019.5.5,0,0,0,.138-.98l-3.885-1.117A21.06,21.06,0,0,1,107.3,124.643a.5.5,0,0,0,.732.682,22.143,22.143,0,0,0,2.98-4.044A21.916,21.916,0,0,0,113.191,104.538Z" transform="translate(-69.839 -87.33)" fill="#1f212b"/>
    <path id="Path_3011" data-name="Path 3011" d="M104,100.417H80a3.029,3.029,0,0,0-3,3.045v13.479a3.028,3.028,0,0,0,3,3.044h24a3.028,3.028,0,0,0,3-3.044V103.462A3.029,3.029,0,0,0,104,100.417Zm-26.007,5.326h28.012v3.742H77.994Zm2-4.326h24a2.028,2.028,0,0,1,2,2.045v1.281H77.994v-1.281A2.028,2.028,0,0,1,80,101.417Zm24,17.568H80a2.027,2.027,0,0,1-2-2.044v-6.456h28.012v6.456A2.027,2.027,0,0,1,104,118.985Z" transform="translate(-69.839 -87.33)" fill="#1f212b"/>
    <path id="Path_3012" data-name="Path 3012" d="M90.591,114.253a4.052,4.052,0,0,1-1.371.241,10.83,10.83,0,0,1-3.012-.414,11.535,11.535,0,0,0-3.442-.426,12.22,12.22,0,0,0-2.292.373A.5.5,0,1,0,80.7,115a11.636,11.636,0,0,1,2.088-.347,10.621,10.621,0,0,1,3.177.4,11.82,11.82,0,0,0,3.255.444,5.049,5.049,0,0,0,1.709-.3.5.5,0,0,0-.338-.942Z" transform="translate(-69.839 -87.33)" fill="#1f212b"/>
  </g>
</svg>
