<svg id="ic_badge_world_travel" data-name="ic_badge_world travel" xmlns="http://www.w3.org/2000/svg" width="48" height="48" viewBox="0 0 48 48">
  <rect id="Rectangle_744" data-name="Rectangle 744" width="48" height="48" fill="#1f212b" opacity="0"/>
  <g id="Group_1408" data-name="Group 1408" transform="translate(1.841 3.05)">
    <path id="Path_2352" data-name="Path 2352" d="M70.306-889.155a1.094,1.094,0,0,0,.986-.154c.33-.287.649-.575.951-.863a1.044,1.044,0,0,0-.409-.26,1.117,1.117,0,0,0-.959.21c-.076.046-.2.122-.2.139a5.131,5.131,0,0,1-1.407-1.841,8.007,8.007,0,0,1,1.13.723,2.53,2.53,0,0,0,2.74-.019.766.766,0,0,0-.083-1.083,7.694,7.694,0,0,1-1.211-1.821,4.994,4.994,0,0,1,.64.3c.133.069.259.135.375.187.18.081.436.167.7.254a5.075,5.075,0,0,1,.769.295,2.093,2.093,0,0,0,.364.174c.218-.295.423-.588.607-.879a.858.858,0,0,1-.443-.145,5.087,5.087,0,0,0-.982-.394c-.226-.074-.447-.147-.6-.217-.1-.045-.21-.1-.325-.162a2.462,2.462,0,0,0-1.936-.394.5.5,0,0,0-.294.293c-.233.623.781,2.207,1.428,2.989a1.919,1.919,0,0,1-1.155-.182c-1.487-1.089-2.054-1.17-2.45-.952a.743.743,0,0,0-.372.742A5.3,5.3,0,0,0,70.306-889.155Z" transform="translate(-34.424 911.766)" fill="#1f212b"/>
    <path id="Path_2353" data-name="Path 2353" d="M59.118-872.371a18.656,18.656,0,0,1-2.28.155,19.208,19.208,0,0,1-3.532-.339,10.021,10.021,0,0,1-2.044-.492c-.192-.058-.374-.137-.563-.2a6.367,6.367,0,0,1-.208-.855,2.675,2.675,0,0,1-.111-.942l.016-.2c.005-.065.309-1.58.316-1.665-.345.05-.692.173-1.03.213,0,.009-.282,1.363-.282,1.371l-.016.193a3.1,3.1,0,0,0,.391,1.538c-.1-.031-.187-.06-.265-.087-.107-.045-.208-.1-.314-.148a3.507,3.507,0,0,1-1.266-1.241c-.023-.039-.285-1.393-.307-1.433-.377.028-.938-.012-1.3,0,.063.138.342.92.547,1.455a19.532,19.532,0,0,1-1.942-1.336c-.575-.02-1.131-.061-1.67-.119a20.4,20.4,0,0,0,5.429,3.53c.083.046.164.1.247.139.009.005.39.17.864.324a19.955,19.955,0,0,0,7.042,1.29,19.48,19.48,0,0,0,2.513-.183,4.066,4.066,0,0,1-.2-.687C59.136-872.19,59.133-872.272,59.118-872.371Z" transform="translate(-34.58 911.887)" fill="#1f212b"/>
    <path id="Path_2354" data-name="Path 2354" d="M65.2-874.155l-.176,1.178a20.218,20.218,0,0,0,12.026-18.138c-.323.437-.681.875-1.06,1.312A19.239,19.239,0,0,1,65.2-874.155Z" transform="translate(-34.424 911.887)" fill="#1f212b"/>
    <path id="Path_2355" data-name="Path 2355" d="M70.668-883.51l.1-.044a2.1,2.1,0,0,0,1.1-1.3,2.337,2.337,0,0,0-.11-1.675c-.03-.07-.072-.131-.109-.2,5.681-4.559,8.481-9.735,6.875-13.555-.9-2.148-3.059-3.641-6.227-4.353a20.449,20.449,0,0,0-4.143-3.648.479.479,0,0,0-.1-.083.577.577,0,0,0-.068-.02,20.182,20.182,0,0,0-11.028-3.278,20.215,20.215,0,0,0-13.172,4.876.485.485,0,0,0-.205.186,20.325,20.325,0,0,0-6.35,10.457.493.493,0,0,0-.078.3,20.275,20.275,0,0,0-.522,4.509c0,.439.021.875.049,1.308-1.978,2.955-2.522,5.721-1.562,8,1,2.389,3.52,3.921,7,4.535h0c.518.091,1.06.16,1.619.21h0c.682.061,1.392.1,2.129.1.194,0,.4-.012.6-.016H46.5a33.33,33.33,0,0,0,5.1-.541,1.431,1.431,0,0,1,.136.222,2.71,2.71,0,0,1,.06,1.47A4.259,4.259,0,0,0,51.8-874.4a6.482,6.482,0,0,0,.338.972.5.5,0,0,0,.28.263.5.5,0,0,0,.385-.013l1.438-.652a.5.5,0,0,0,.276-.32l.677-2.387,4.9-2.208a4.185,4.185,0,0,1,.161.721,8.65,8.65,0,0,1-.019,2.76,9.289,9.289,0,0,0,.021,3.154c0,.02,0,.038.007.059v0a2.634,2.634,0,0,0,.085.334c0,.014.011.03.015.044.035.107.076.219.125.338v0h0c.091.226.2.474.33.762l.223.5a.5.5,0,0,0,.279.268.509.509,0,0,0,.181.033.506.506,0,0,0,.206-.044l1.9-.855a.507.507,0,0,0,.29-.384l1.513-10.1Zm-26.38-22.382.667-.139a.5.5,0,0,0,.168-.068,6.107,6.107,0,0,1,1.434-.725.853.853,0,0,1,.265.117c-.09.12-.217.27-.327.39l-.936.822a.5.5,0,0,0-.164.466l.15.853a.5.5,0,0,0,.194.316l.414.31.037.72a.507.507,0,0,0,.2.372.513.513,0,0,0,.41.094l.954-.2a.493.493,0,0,0,.259-.146l1.539-1.613.743.13c.263.768.217,4.137-.257,4.732-.032.027-.055.043-.063.053-.037-.021-.094-.058-.139-.087a2.109,2.109,0,0,0-2.295-.116.907.907,0,0,0-.549.542,1.071,1.071,0,0,0,.208.9c.016.025.035.057.053.089l-.4.213c-1.8.969-2.362,1.3-2.1,1.886a4.441,4.441,0,0,1,.309,1.017c-.441-.576-.915-1.116-1.141-1.146a2.345,2.345,0,0,0-2.489,1.781c-.408,1.087-.566,3.079,0,3.476a10.2,10.2,0,0,1,1.12,2.154,13.945,13.945,0,0,1-2.619-2.746c-.251-.753-1.367-3.572-1.739-4.437A19.327,19.327,0,0,1,44.288-905.892Zm5.381,27.4,0,.024c-.85.11-1.681.187-2.481.226l-.009-.028c-.347.016-.7.039-1.034.043l0,.011v0a21.66,21.66,0,0,1-3.556-.233l-.005-.006a15.1,15.1,0,0,1-1.561-.324c-2.468-.655-4.246-1.87-4.986-3.633-.709-1.684-.421-3.726.805-5.959a20.253,20.253,0,0,0,3.138,8.2,11.2,11.2,0,0,0,1.591.489,19.209,19.209,0,0,1-3.943-11.652,19.191,19.191,0,0,1,.219-2.747c.442,1.107.97,2.464,1.132,2.947.239.719,1.838,2.238,3.141,3.389a2.5,2.5,0,0,0,.563.356,2.391,2.391,0,0,0,.221.106c.067.128-.009.517-.227,1.156-.044.131-.079.239-.1.312a3.674,3.674,0,0,0,.214,2.4,9.859,9.859,0,0,0,1.581,2.42,4.33,4.33,0,0,0,.684.509,1.12,1.12,0,0,1,.579.7c.073.181.136.371.2.561h0c.343,0,.695-.011,1.047-.026-.1-.309-.2-.616-.319-.914a2.092,2.092,0,0,0-.978-1.174,3.335,3.335,0,0,1-.54-.4,9.13,9.13,0,0,1-1.348-2.1,2.663,2.663,0,0,1-.15-1.735c.014-.054.041-.135.075-.23.183-.541.5-1.469.115-2.039a1.5,1.5,0,0,0,.854-.22l.08-.043a.4.4,0,0,1,.114.037c.313.137.684.269,1.073.407a7.126,7.126,0,0,1,2.2,1.047,2.969,2.969,0,0,1,.628.885,2.78,2.78,0,0,0,1.478,1.462,6.2,6.2,0,0,0,.668.233c.721.223,1.064.369,1.1.745a1.165,1.165,0,0,1-.246.646l.909.436a1.9,1.9,0,0,0,.337-1.189c-.114-1.076-1.093-1.378-1.807-1.6a5.527,5.527,0,0,1-.564-.194,1.794,1.794,0,0,1-.99-1.012,3.889,3.889,0,0,0-.836-1.153A7.676,7.676,0,0,0,46.2-888.6c-.365-.13-.714-.253-1.006-.382a1.075,1.075,0,0,0-1.069.039.768.768,0,0,1-.549.091,10.613,10.613,0,0,0-1.46-2.734,4.734,4.734,0,0,1,.594-3.037,1.113,1.113,0,0,1,.92-.5,13.231,13.231,0,0,1,1.491,2,.507.507,0,0,0,.4.275.5.5,0,0,0,.447-.2,4.729,4.729,0,0,0-.186-3.051c.351-.246,1.131-.666,1.542-.886.853-.458.943-.507.99-.782a1.331,1.331,0,0,0-.262-.927l-.022-.037c.715-.282.971-.113,1.24.068a1.058,1.058,0,0,0,1.472-.1c.823-1.008.887-5.032.4-5.985a.694.694,0,0,0-.565-.42l-1.124-.2a.482.482,0,0,0-.449.148l-1.616,1.7-.226.046-.019-.367a.5.5,0,0,0-.2-.376l-.443-.332-.067-.38.761-.67c.652-.7.7-.947.713-1.04a.744.744,0,0,0-.2-.632,1.974,1.974,0,0,0-.849-.511,19.175,19.175,0,0,1,10.093-2.877,19.177,19.177,0,0,1,10.264,2.982,1.749,1.749,0,0,0,.03.6.658.658,0,0,1-.075.591,5.971,5.971,0,0,1-2-.1c-.376-.056-.718-.106-.961-.118-1.415-.083-3.016,1.382-3.632,2.014a.5.5,0,0,0-.115.183,2.621,2.621,0,0,0,0,1.226c.126.86.173,1.5-.361,1.9a1.46,1.46,0,0,0-.427,1.2,2.26,2.26,0,0,1-.061.543s-.123.044-.518-.1a.5.5,0,0,0-.411.03,2.242,2.242,0,0,0-1.3,1.621,2.533,2.533,0,0,0,.683,1.977c.6.616,1.934,1.344,4.234-.577a5.836,5.836,0,0,1,1.571,1.32h0a2.457,2.457,0,0,1,.29.908s-.359.045-1.3-.809a.5.5,0,0,0-.184-.107,3.649,3.649,0,0,0-2.563.158l-.056.028c-1.693.243-4.024,2.425-4.248,3.636l.932.605c.015-.137.026-.271.05-.416a5.831,5.831,0,0,1,3.41-2.83,1.347,1.347,0,0,0,.282-.089,2.679,2.679,0,0,1,1.787-.164c1.091.963,1.925,1.233,2.48.8.506-.394.509-1.256-.029-2.25a6.49,6.49,0,0,0-2.271-1.839.564.564,0,0,0-.658.167c-1.333,1.183-2.343,1.439-3,.761a1.549,1.549,0,0,1-.41-1.122,1.185,1.185,0,0,1,.606-.782,1.367,1.367,0,0,0,1.182-.077,1.547,1.547,0,0,0,.516-1.337c.007-.153.019-.41.024-.444a2.734,2.734,0,0,0,.755-2.847,4.173,4.173,0,0,1-.064-.664,4.718,4.718,0,0,1,2.76-1.611c.219.011.528.058.867.109,1.521.223,2.547.324,2.953-.3a1.639,1.639,0,0,0,.3-1.059,19.325,19.325,0,0,1,3.361,3.152l-.008.046.059.014a19.275,19.275,0,0,1,4.285,9.263,9.3,9.3,0,0,0,.715-1.69,20.267,20.267,0,0,0-3.342-7.132,6.511,6.511,0,0,1,4.248,3.413,6.583,6.583,0,0,1-.554,5.511v-.009a13.881,13.881,0,0,1-.973,1.652h.009a22.318,22.318,0,0,1-3.4,3.839l0-.01c-.529.484-1.087.965-1.685,1.44h0a2.247,2.247,0,0,0-2.2-.256l-5.271,2.373-8.562-5.56a.5.5,0,0,0-.48-.037l-1.9.854a.507.507,0,0,0-.264.283.509.509,0,0,0,.015.388l.231.5a7.1,7.1,0,0,0,.741,1.394,9.234,9.234,0,0,0,2.385,2.15,8.646,8.646,0,0,1,2.079,1.817,4.244,4.244,0,0,1,.433.6l-4.9,2.208-1.14-.547-.06-.029-1.035-.5a.5.5,0,0,0-.422-.005l-1.442.645a.5.5,0,0,0-.264.279.5.5,0,0,0,.012.386,6.858,6.858,0,0,0,.5.9,3.988,3.988,0,0,0,1.128,1.026C50.265-878.55,49.973-878.529,49.669-878.491Zm14.791-3.073-1.513,10.1-1.185.535-.02-.047a6.8,6.8,0,0,1-.483-1.248,8.28,8.28,0,0,1-.021-2.906,9.617,9.617,0,0,0,.015-3.042,4.11,4.11,0,0,0-.461-1.479.5.5,0,0,0-.439-.259.517.517,0,0,0-.206.044l-5.576,2.512a.506.506,0,0,0-.277.321l-.677,2.387-.742.336c-.044-.136-.08-.257-.1-.336a3.471,3.471,0,0,1,.015-1.266,3.588,3.588,0,0,0-.141-2.01,3.58,3.58,0,0,0-1.411-1.438,3.523,3.523,0,0,1-.959-.827c-.044-.067-.112-.174-.184-.3l.743-.332,2.235,1.074a.506.506,0,0,0,.423.005l5.576-2.511a.5.5,0,0,0,.268-.625,4.148,4.148,0,0,0-.8-1.325,9.611,9.611,0,0,0-2.289-2.008,8.266,8.266,0,0,1-2.16-1.939,6.894,6.894,0,0,1-.612-1.186l-.023-.05,1.185-.533,8.561,5.56a.5.5,0,0,0,.48.037l5.58-2.513a1.254,1.254,0,0,1,1.569.709l.009.022a1.314,1.314,0,0,1,.061.953,1.134,1.134,0,0,1-.631.718l-5.519,2.486A.5.5,0,0,0,64.46-881.563Z" transform="translate(-34.649 911.662)" fill="#1f212b"/>
    <path id="Path_2356" data-name="Path 2356" d="M67.011-880.818a1.311,1.311,0,0,0-.1.165.5.5,0,0,0-.044.274,1.4,1.4,0,0,1-.033.545c-.134.061-.269.119-.406.176a.5.5,0,0,0-.177.125c-.051.056-.091.111-.135.167-.014.077-.028.155-.039.233a13.681,13.681,0,0,1-.245,1.534l.078-.054a3.714,3.714,0,0,0,.768-.818c.077-.1.155-.206.243-.309q.269-.114.532-.238a.5.5,0,0,0,.251-.267,2.423,2.423,0,0,0,.172-1.032,1.381,1.381,0,0,1,.285-.2,1.847,1.847,0,0,0,.619-.539,1.96,1.96,0,0,0,.344-.946l-.111.056c-.318.168-.631.346-.942.526C67.718-881.222,67.366-881.018,67.011-880.818Z" transform="translate(-34.477 911.841)" fill="#1f212b"/>
  </g>
</svg>
