<svg id="ic_badge_aircraft" xmlns="http://www.w3.org/2000/svg" width="48" height="48" viewBox="0 0 48 48">
  <path id="Path_1282" data-name="Path 1282" d="M19.8,45H15.01l.013-1.579a13.345,13.345,0,0,1,.183-2.929,17.39,17.39,0,0,1,2.441-5.544,17.111,17.111,0,0,0,2.272-4.966A7.257,7.257,0,0,0,20.249,28H9.152L5.778,32,2,32.009v-.5a12.652,12.652,0,0,1,.168-1.895A7.884,7.884,0,0,1,3.39,26.88,5.645,5.645,0,0,0,4.518,24,5.638,5.638,0,0,0,3.39,21.12a7.892,7.892,0,0,1-1.227-2.733A12.679,12.679,0,0,1,2,16.492v-.5L5.778,16,9.152,20h11.1a7.256,7.256,0,0,0-.33-1.99,17.111,17.111,0,0,0-2.272-4.966A17.4,17.4,0,0,1,15.206,7.5a13.335,13.335,0,0,1-.183-2.928L15.01,3H19.8L30.757,20.017H42.173c.045,0,.1,0,.166,0a3.6,3.6,0,0,1,2.615,1.258,4.162,4.162,0,0,1,0,5.45,3.6,3.6,0,0,1-2.618,1.258H30.757Zm-3.784-1h3.238L30.212,26.983h12.1a2.606,2.606,0,0,0,1.892-.921,3.028,3.028,0,0,0,.764-2.05v-.024a2.9,2.9,0,0,0-2.658-2.971h-12.1L19.257,4H16.019l0,.576a13.342,13.342,0,0,0,.152,2.687A16.359,16.359,0,0,0,18.5,12.522a18.122,18.122,0,0,1,2.384,5.222,7.543,7.543,0,0,1,.345,2.8L21.188,21H8.687L5.312,17l-2.3,0a12.247,12.247,0,0,0,.138,1.222A7.042,7.042,0,0,0,4.242,20.6,6.472,6.472,0,0,1,5.518,24a6.478,6.478,0,0,1-1.276,3.4,7.038,7.038,0,0,0-1.093,2.383c-.033.186-.105.687-.138,1.221l2.3,0L8.687,27h12.5l.038.458a7.517,7.517,0,0,1-.345,2.8A18.13,18.13,0,0,1,18.5,35.478a16.362,16.362,0,0,0-2.322,5.262,13.353,13.353,0,0,0-.152,2.688Z" transform="translate(0 0)" fill="#1f212b"/>
  <rect id="Rectangle_711" data-name="Rectangle 711" width="48" height="48" fill="#1f212b" opacity="0"/>
  <path id="Path_99" data-name="Path 99" d="M30.254,20.663" transform="translate(0 0)" fill="#1f212b"/>
  <path id="Path_1283" data-name="Path 1283" d="M19.8,45H15.01l.013-1.579a13.345,13.345,0,0,1,.183-2.929,17.39,17.39,0,0,1,2.441-5.544,17.111,17.111,0,0,0,2.272-4.966A7.257,7.257,0,0,0,20.249,28H9.152L5.778,32,2,32.009v-.5a12.652,12.652,0,0,1,.168-1.895A7.884,7.884,0,0,1,3.39,26.88,5.645,5.645,0,0,0,4.518,24,5.638,5.638,0,0,0,3.39,21.12a7.892,7.892,0,0,1-1.227-2.733A12.679,12.679,0,0,1,2,16.492v-.5L5.778,16,9.152,20h11.1a7.256,7.256,0,0,0-.33-1.99,17.111,17.111,0,0,0-2.272-4.966A17.4,17.4,0,0,1,15.206,7.5a13.335,13.335,0,0,1-.183-2.928L15.01,3H19.8L30.757,20.017H42.173c.045,0,.1,0,.166,0a3.6,3.6,0,0,1,2.615,1.258,4.162,4.162,0,0,1,0,5.45,3.6,3.6,0,0,1-2.618,1.258H30.757Zm-3.784-1h3.238L30.212,26.983h12.1a2.606,2.606,0,0,0,1.892-.921,3.028,3.028,0,0,0,.764-2.05v-.024a2.9,2.9,0,0,0-2.658-2.971h-12.1L19.257,4H16.019l0,.576a13.342,13.342,0,0,0,.152,2.687A16.359,16.359,0,0,0,18.5,12.522a18.122,18.122,0,0,1,2.384,5.222,7.543,7.543,0,0,1,.345,2.8L21.188,21H8.687L5.312,17l-2.3,0a12.247,12.247,0,0,0,.138,1.222A7.042,7.042,0,0,0,4.242,20.6,6.472,6.472,0,0,1,5.518,24a6.478,6.478,0,0,1-1.276,3.4,7.038,7.038,0,0,0-1.093,2.383c-.033.186-.105.687-.138,1.221l2.3,0L8.687,27h12.5l.038.458a7.517,7.517,0,0,1-.345,2.8A18.13,18.13,0,0,1,18.5,35.478a16.362,16.362,0,0,0-2.322,5.262,13.353,13.353,0,0,0-.152,2.688Z" transform="translate(0 0)" fill="#1f212b"/>
  <rect id="Rectangle_712" data-name="Rectangle 712" width="48" height="48" fill="#1f212b" opacity="0"/>
  <path id="Path_99-2" data-name="Path 99" d="M30.254,20.663" transform="translate(0 0)" fill="#1f212b"/>
</svg>
