<svg id="ic_badge_discounted" xmlns="http://www.w3.org/2000/svg" width="48" height="48" viewBox="0 0 48 48">
  <rect id="Rectangle_2147" data-name="Rectangle 2147" width="48" height="48" fill="#1f212b" opacity="0"/>
  <g id="Group_6622" data-name="Group 6622" transform="translate(3.063 27.352)">
    <path id="Path_3174" data-name="Path 3174" d="M44.516,27.352H31.926a1.694,1.694,0,0,1-.486,1h1.126a.436.436,0,0,0,0,.072,17.7,17.7,0,0,1,.54,3.217,15.83,15.83,0,0,1-.615,4.879,17.509,17.509,0,0,0-.671,4.871,7.285,7.285,0,0,0,.387,2.29H4.563a.5.5,0,0,1-.5-.5V28.852a.5.5,0,0,1,.5-.5H16.72a2.093,2.093,0,0,1-.521-1H4.563a1.5,1.5,0,0,0-1.5,1.5V43.181a1.5,1.5,0,0,0,1.5,1.5H44.516a1.5,1.5,0,0,0,1.5-1.5V28.852A1.5,1.5,0,0,0,44.516,27.352Zm.5,15.829a.5.5,0,0,1-.5.5H33.226a.475.475,0,0,0-.02-.129,6.311,6.311,0,0,1-.384-2.161,16.411,16.411,0,0,1,.64-4.624,16.88,16.88,0,0,0,.646-5.15,17.758,17.758,0,0,0-.532-3.265h10.94a.5.5,0,0,1,.5.5Z" transform="translate(-3.063 -27.352)" fill="#1f212b"/>
    <path id="Path_3175" data-name="Path 3175" d="M6.879,35.457a.5.5,0,0,0,.5.5l21.455-.006a.5.5,0,1,0,0-1l-21.455.006A.5.5,0,0,0,6.879,35.457Z" transform="translate(-3.063 -27.352)" fill="#1f212b"/>
    <path id="Path_3176" data-name="Path 3176" d="M7.38,38.852a.5.5,0,0,0,0,1h9.752a.5.5,0,1,0,0-1Z" transform="translate(-3.063 -27.352)" fill="#1f212b"/>
  </g>
  <g id="Group_6623" data-name="Group 6623" transform="translate(1.984 3.318)">
    <path id="Path_3177" data-name="Path 3177" d="M44.05,16.165l-5.65-12a1.479,1.479,0,0,0-1.967-.708L2.833,19.282a1.481,1.481,0,0,0-.708,1.967l2.93,6.221a1.83,1.83,0,0,1,.209-.023c.273,0,.567-.012.874-.024l-3.108-6.6a.48.48,0,0,1,.229-.637L28.467,8.316a16.2,16.2,0,0,0,.821,2.81,16.332,16.332,0,0,0,2.691,4.246,15.918,15.918,0,0,1,2.466,3.783,6.067,6.067,0,0,1,.513,1.82l-2.484,1.17a2.176,2.176,0,0,1,.169.728,1.709,1.709,0,0,1-.021.307l10.721-5.048A1.482,1.482,0,0,0,44.05,16.165Zm-1.133,1.062-7.025,3.308a7,7,0,0,0-.542-1.805,16.953,16.953,0,0,0-2.6-3.994A15.321,15.321,0,0,1,30.2,10.721a16.437,16.437,0,0,1-.808-2.842l7.464-3.515a.5.5,0,0,1,.2-.045.48.48,0,0,1,.434.275l5.649,12A.479.479,0,0,1,42.917,17.227Z" transform="translate(-1.984 -3.318)" fill="#1f212b"/>
    <path id="Path_3178" data-name="Path 3178" d="M15.473,20.938l-7.814,3.68a.5.5,0,0,0,.213.952.486.486,0,0,0,.212-.048L15.9,21.843a.5.5,0,0,0-.426-.905Z" transform="translate(-1.984 -3.318)" fill="#1f212b"/>
  </g>
  <g id="Group_6624" data-name="Group 6624" transform="translate(14.856 15.005)">
    <path id="Path_3179" data-name="Path 3179" d="M23.989,15.005a9.133,9.133,0,1,0,9.132,9.132A9.143,9.143,0,0,0,23.989,15.005Zm0,17.265a8.133,8.133,0,1,1,8.132-8.133A8.142,8.142,0,0,1,23.989,32.27Z" transform="translate(-14.856 -15.005)" fill="#1f212b"/>
    <path id="Path_3180" data-name="Path 3180" d="M27.132,20.286l-6.994,7a.5.5,0,1,0,.707.707l6.994-7a.5.5,0,0,0-.707-.707Z" transform="translate(-14.856 -15.005)" fill="#1f212b"/>
    <path id="Path_3181" data-name="Path 3181" d="M21.833,23.5a1.521,1.521,0,1,0-1.521-1.521A1.523,1.523,0,0,0,21.833,23.5Zm0-2.042a.521.521,0,1,1-.521.521A.521.521,0,0,1,21.833,21.461Z" transform="translate(-14.856 -15.005)" fill="#1f212b"/>
    <path id="Path_3182" data-name="Path 3182" d="M26.144,24.772a1.521,1.521,0,1,0,1.521,1.521A1.522,1.522,0,0,0,26.144,24.772Zm0,2.042a.521.521,0,1,1,.521-.521A.522.522,0,0,1,26.144,26.814Z" transform="translate(-14.856 -15.005)" fill="#1f212b"/>
  </g>
</svg>
